<svg width="172" height="16" viewBox="0 0 172 16" fill="none" xmlns="http://www.w3.org/2000/svg">
<path d="M0.999961 12.5C1.22663 12.66 1.55996 12.82 1.99996 12.98C2.45329 13.1266 2.96663 13.2 3.53996 13.2C4.15329 13.2 4.63996 13.0933 4.99996 12.88C5.37329 12.6533 5.65329 12.3266 5.83996 11.9C6.03996 11.46 6.16663 10.92 6.21996 10.28C6.28663 9.62662 6.31996 8.87328 6.31996 8.01995V0.799951H8.57996V8.01995C8.57996 9.09995 8.52663 10.0866 8.41996 10.98C8.31329 11.86 8.08663 12.6133 7.73996 13.24C7.39329 13.8666 6.88663 14.3533 6.21996 14.7C5.55329 15.0466 4.65996 15.22 3.53996 15.22C2.33996 15.22 1.31329 14.9266 0.459961 14.34L0.999961 12.5Z" fill="#212121"/>
<path d="M23.5126 0.799951H25.4726L31.0726 15H28.7126L27.2126 11.14H21.7326L20.2526 15H17.8726L23.5126 0.799951ZM26.7726 9.47995L24.4926 3.37995L22.1326 9.47995H26.7726Z" fill="#212121"/>
<path d="M43.0687 4.99995V15H40.8287V0.799951H42.5887L50.7087 11.04V0.819951H52.9687V15H51.1087L43.0687 4.99995Z" fill="#212121"/>
<path d="M73.9007 13.02V15H64.1607V0.799951H73.7207V2.77995H66.4007V6.81995H72.7407V8.67995H66.4007V13.02H73.9007Z" fill="#212121"/>
<path d="M97.1529 15V0.819951H99.3929V8.11995L106.073 0.799951H108.553L102.953 7.07995L108.873 15H106.373L101.573 8.45995L99.3929 10.72V15H97.1529Z" fill="#212121"/>
<path d="M123.494 15.1C122.481 15.1 121.554 14.9 120.714 14.5C119.888 14.0866 119.174 13.5466 118.574 12.88C117.974 12.2 117.508 11.4266 117.174 10.56C116.854 9.69329 116.694 8.80662 116.694 7.89995C116.694 6.95328 116.868 6.04662 117.214 5.17995C117.561 4.31328 118.034 3.54662 118.634 2.87995C119.248 2.21328 119.968 1.68662 120.794 1.29995C121.634 0.899951 122.548 0.699951 123.534 0.699951C124.548 0.699951 125.468 0.913285 126.294 1.33995C127.134 1.75328 127.848 2.29995 128.434 2.97995C129.034 3.65995 129.494 4.43328 129.814 5.29995C130.148 6.15328 130.314 7.02662 130.314 7.91995C130.314 8.86662 130.141 9.77328 129.794 10.64C129.461 11.5066 128.988 12.2733 128.374 12.94C127.761 13.5933 127.034 14.12 126.194 14.52C125.368 14.9066 124.468 15.1 123.494 15.1ZM118.974 7.89995C118.974 8.56662 119.081 9.21328 119.294 9.83995C119.508 10.4666 119.808 11.02 120.194 11.5C120.594 11.98 121.074 12.3666 121.634 12.66C122.194 12.94 122.821 13.08 123.514 13.08C124.234 13.08 124.868 12.9333 125.414 12.64C125.974 12.3333 126.448 11.9333 126.834 11.44C127.221 10.9466 127.514 10.3933 127.714 9.77995C127.914 9.16662 128.014 8.53995 128.014 7.89995C128.014 7.21995 127.908 6.57328 127.694 5.95995C127.481 5.33328 127.174 4.78662 126.774 4.31995C126.388 3.83995 125.914 3.45995 125.354 3.17995C124.808 2.88662 124.194 2.73995 123.514 2.73995C122.794 2.73995 122.154 2.89328 121.594 3.19995C121.034 3.49328 120.561 3.87995 120.174 4.35995C119.788 4.83995 119.488 5.39328 119.274 6.01995C119.074 6.63328 118.974 7.25995 118.974 7.89995Z" fill="#212121"/>
<path d="M139.204 13.28L147.824 2.77995H139.404V0.799951H150.444V2.51995L142.024 13.02H150.464V15H139.204V13.28Z" fill="#212121"/>
<path d="M159.782 13.28L168.402 2.77995H159.982V0.799951H171.022V2.51995L162.602 13.02H171.042V15H159.782V13.28Z" fill="#212121"/>
</svg>
