<svg width="211" height="32" viewBox="0 0 211 32" fill="none" xmlns="http://www.w3.org/2000/svg">
<path d="M10.1654 10.7533V12.4815H1.43575V0.0872832H10.0041V1.81549H3.44339V5.34174H9.12574V6.96521H3.44339V10.7533H10.1654Z" fill="#212121"/>
<path d="M22.0058 0.0872832L25.8419 10.0201L29.66 0.0872832H31.7931L26.7023 12.4815H24.9815L19.8727 0.0872832H22.0058Z" fill="#212121"/>
<path d="M50.7468 10.9453C49.6713 12.0276 48.4345 12.5688 47.0363 12.5688C46.1878 12.5688 45.3991 12.4 44.6701 12.0626C43.9412 11.7134 43.3078 11.2479 42.77 10.666C42.2323 10.0841 41.808 9.40914 41.4973 8.64105C41.1986 7.87295 41.0492 7.06995 41.0492 6.23203C41.0492 5.39411 41.1986 4.59692 41.4973 3.84047C41.808 3.08401 42.2323 2.42066 42.77 1.85041C43.3078 1.28015 43.9471 0.832101 44.6881 0.506243C45.429 0.168748 46.2356 0 47.108 0C48.3269 0 49.3487 0.250212 50.1732 0.750636C50.9978 1.23942 51.6192 1.89114 52.0375 2.70578L50.4959 3.7881C50.1493 3.1131 49.6713 2.60686 49.0619 2.26937C48.4524 1.93187 47.7832 1.76312 47.0542 1.76312C46.4567 1.76312 45.913 1.89114 45.423 2.14717C44.933 2.39156 44.5148 2.72324 44.1682 3.1422C43.8217 3.54952 43.5528 4.02667 43.3616 4.57365C43.1823 5.12062 43.0927 5.69087 43.0927 6.2844C43.0927 6.91284 43.1943 7.50055 43.3974 8.04752C43.6125 8.5945 43.8993 9.07164 44.2579 9.47897C44.6283 9.88629 45.0645 10.2121 45.5664 10.4565C46.0683 10.6893 46.6121 10.8057 47.1976 10.8057C47.8429 10.8057 48.4584 10.6602 49.0439 10.3693C49.6414 10.0783 50.2091 9.61862 50.7468 8.99018V7.66347H48.076V6.21457H52.4318V12.4815H50.7468V10.9453Z" fill="#212121"/>
<path d="M72.4142 10.7533V12.4815H63.6845V0.0872832H72.2529V1.81549H65.6921V5.34174H71.3745V6.96521H65.6921V10.7533H72.4142Z" fill="#212121"/>
<path d="M85.4556 3.75318V12.4815H83.448V0.0872832H85.0254L92.3031 9.02509V0.10474H94.3287V12.4815H92.6616L85.4556 3.75318Z" fill="#212121"/>
<path d="M106.152 12.4815V0.0872832H108.16V12.4815H106.152Z" fill="#212121"/>
<path d="M123.745 0.0872832H125.502L130.521 12.4815H128.406L127.062 9.11238H122.15L120.824 12.4815H118.69L123.745 0.0872832ZM126.667 7.66347L124.624 2.33919L122.509 7.66347H126.667Z" fill="#212121"/>
<path d="M8.96441 22.3988C8.84491 22.2708 8.67163 22.137 8.44458 21.9973C8.21752 21.846 7.94864 21.7064 7.63793 21.5784C7.33918 21.4504 7.00457 21.3456 6.63411 21.2642C6.2756 21.1827 5.90515 21.142 5.52274 21.142C4.67427 21.142 4.04688 21.2932 3.64057 21.5958C3.24621 21.8984 3.04903 22.3174 3.04903 22.8527C3.04903 23.1553 3.10878 23.4055 3.22829 23.6033C3.35974 23.7895 3.55692 23.9583 3.81982 24.1096C4.08273 24.2492 4.41136 24.3773 4.80572 24.4936C5.20008 24.5984 5.66017 24.7148 6.18598 24.8428C6.83129 24.9941 7.41088 25.1628 7.92474 25.349C8.45055 25.5352 8.89271 25.7622 9.25122 26.0298C9.60973 26.2975 9.88459 26.6292 10.0758 27.0248C10.2789 27.4089 10.3805 27.8802 10.3805 28.4388C10.3805 29.0673 10.255 29.6084 10.0041 30.0623C9.76508 30.5162 9.43048 30.8886 9.00027 31.1795C8.58201 31.4588 8.09204 31.6683 7.53038 31.808C6.96872 31.936 6.36523 32 5.71992 32C4.75194 32 3.81385 31.8603 2.90563 31.581C2.00936 31.2901 1.19674 30.8711 0.467773 30.3242L1.38197 28.6483C1.53732 28.7996 1.7584 28.9684 2.04521 29.1546C2.34397 29.3408 2.68455 29.5153 3.06696 29.6783C3.46132 29.8296 3.88555 29.9634 4.33966 30.0798C4.79377 30.1845 5.26581 30.2369 5.75577 30.2369C6.54448 30.2369 7.15395 30.103 7.58416 29.8354C8.01437 29.5677 8.22947 29.172 8.22947 28.6483C8.22947 28.3341 8.14582 28.0723 7.97852 27.8628C7.82316 27.6533 7.59611 27.4729 7.29735 27.3216C6.9986 27.1587 6.63411 27.0132 6.2039 26.8852C5.77369 26.7572 5.28373 26.6233 4.73402 26.4837C4.10066 26.3208 3.54497 26.152 3.06696 25.9774C2.6009 25.7912 2.21251 25.5701 1.90181 25.3141C1.5911 25.0581 1.35209 24.7613 1.18479 24.4238C1.02944 24.0747 0.951759 23.6557 0.951759 23.1669C0.951759 22.5618 1.07126 22.0264 1.31027 21.5609C1.54927 21.0838 1.87193 20.6881 2.27824 20.3739C2.6965 20.048 3.18646 19.8036 3.74812 19.6407C4.30978 19.4778 4.91925 19.3963 5.57651 19.3963C6.43693 19.3963 7.23163 19.5301 7.96059 19.7978C8.68956 20.0655 9.3289 20.3971 9.87861 20.7928L8.96441 22.3988Z" fill="#212121"/>
<path d="M30.6084 21.2118H26.378V31.8778H24.3524V21.2118H20.1041V19.4836H30.6084V21.2118Z" fill="#212121"/>
<path d="M41.2778 31.8778V19.4836H46.8167C47.3903 19.4836 47.9161 19.5999 48.3941 19.8327C48.8841 20.0655 49.3024 20.3739 49.6489 20.7579C49.9955 21.1303 50.2644 21.5609 50.4556 22.0497C50.6587 22.5269 50.7603 23.0156 50.7603 23.5161C50.7603 23.935 50.7005 24.3365 50.581 24.7206C50.4615 25.1046 50.2942 25.4596 50.0791 25.7854C49.864 26.1113 49.6011 26.3964 49.2904 26.6408C48.9797 26.8736 48.6391 27.0481 48.2687 27.1645L51.2622 31.8778H48.9857L46.2252 27.566H43.2854V31.8778H41.2778ZM43.2854 25.8378H46.7988C47.0856 25.8378 47.3425 25.7796 47.5696 25.6632C47.8086 25.5352 48.0117 25.3665 48.179 25.157C48.3463 24.9359 48.4778 24.6857 48.5734 24.4064C48.669 24.127 48.7168 23.8303 48.7168 23.5161C48.7168 23.2018 48.657 22.9051 48.5375 22.6258C48.43 22.3465 48.2806 22.1021 48.0894 21.8926C47.9102 21.6831 47.695 21.5202 47.4441 21.4038C47.2051 21.2758 46.9541 21.2118 46.6912 21.2118H43.2854V25.8378Z" fill="#212121"/>
<path d="M70.8212 30.1496V31.8778H62.0915V19.4836H70.6599V21.2118H64.0992V24.738H69.7815V26.3615H64.0992V30.1496H70.8212Z" fill="#212121"/>
<path d="M81.855 31.8778V19.4836H83.8626V30.1496H90.6922V31.8778H81.855Z" fill="#212121"/>
<path d="M103.293 23.1495V31.8778H101.286V19.4836H102.863L110.141 28.4214V19.501H112.167V31.8778H110.499L103.293 23.1495Z" fill="#212121"/>
<path d="M123.99 31.8778V19.4836H125.998V31.8778H123.99Z" fill="#212121"/>
<path d="M137.837 31.8778V19.501H139.845V25.8727L145.832 19.4836H148.054L143.035 24.965L148.341 31.8778H146.1L141.798 26.1695L139.845 28.1421V31.8778H137.837Z" fill="#212121"/>
<path d="M163.238 31.9651C162.33 31.9651 161.5 31.7905 160.747 31.4414C160.006 31.0806 159.367 30.6093 158.829 30.0274C158.291 29.4339 157.873 28.7589 157.574 28.0024C157.287 27.246 157.144 26.4721 157.144 25.6807C157.144 24.8544 157.299 24.063 157.61 23.3066C157.921 22.5501 158.345 21.881 158.883 21.2991C159.432 20.7172 160.078 20.2575 160.818 19.92C161.571 19.5709 162.39 19.3963 163.274 19.3963C164.182 19.3963 165.007 19.5825 165.748 19.9549C166.501 20.3157 167.14 20.7928 167.666 21.3863C168.204 21.9799 168.616 22.6549 168.903 23.4113C169.202 24.1561 169.351 24.9184 169.351 25.6981C169.351 26.5244 169.196 27.3158 168.885 28.0723C168.586 28.8287 168.162 29.4979 167.612 30.0798C167.062 30.65 166.411 31.1097 165.658 31.4588C164.917 31.7963 164.111 31.9651 163.238 31.9651ZM159.187 25.6807C159.187 26.2626 159.283 26.827 159.474 27.374C159.665 27.921 159.934 28.4039 160.281 28.8229C160.639 29.2418 161.069 29.5793 161.571 29.8354C162.073 30.0798 162.635 30.202 163.256 30.202C163.902 30.202 164.469 30.0739 164.959 29.8179C165.461 29.5502 165.885 29.2011 166.232 28.7705C166.579 28.3399 166.841 27.857 167.021 27.3216C167.2 26.7863 167.29 26.2393 167.29 25.6807C167.29 25.0872 167.194 24.5227 167.003 23.9874C166.812 23.4404 166.537 22.9633 166.178 22.5559C165.832 22.137 165.407 21.8053 164.905 21.5609C164.416 21.3049 163.866 21.1769 163.256 21.1769C162.611 21.1769 162.037 21.3107 161.536 21.5784C161.034 21.8344 160.609 22.1719 160.263 22.5909C159.916 23.0098 159.647 23.4928 159.456 24.0398C159.277 24.5751 159.187 25.1221 159.187 25.6807Z" fill="#212121"/>
<path d="M180.726 19.4836L184.562 29.4164L188.38 19.4836H190.513L185.423 31.8778H183.702L178.593 19.4836H180.726Z" fill="#212121"/>
<path d="M203.692 19.4836H205.449L210.468 31.8778H208.353L207.008 28.5087H202.097L200.77 31.8778H198.637L203.692 19.4836ZM206.614 27.0598L204.57 21.7355L202.455 27.0598H206.614Z" fill="#212121"/>
</svg>
