<svg width="172" height="16" fill="none" xmlns="http://www.w3.org/2000/svg"><path d="M1 12.5c.227.16.56.32 1 .48.453.147.967.22 1.54.22.613 0 1.1-.107 1.46-.32.373-.227.653-.553.84-.98.2-.44.327-.98.38-1.62.067-.653.1-1.407.1-2.26V.8h2.26v7.22c0 1.08-.053 2.067-.16 2.96-.107.88-.333 1.633-.68 2.26a3.575 3.575 0 01-1.52 1.46c-.667.347-1.56.52-2.68.52-1.2 0-2.227-.293-3.08-.88L1 12.5zM23.513.8h1.96l5.6 14.2h-2.36l-1.5-3.86h-5.48L20.253 15h-2.38L23.513.8zm3.26 8.68l-2.28-6.1-2.36 6.1h4.64zM43.069 5v10h-2.24V.8h1.76l8.12 10.24V.82h2.26V15h-1.86l-8.04-10zM73.9 13.02V15h-9.74V.8h9.56v1.98H66.4v4.04h6.34v1.86H66.4v4.34h7.5zM97.153 15V.82h2.24v7.3l6.68-7.32h2.48l-5.6 6.28 5.92 7.92h-2.5l-4.8-6.54-2.18 2.26V15h-2.24zm26.341.1c-1.013 0-1.94-.2-2.78-.6a7.162 7.162 0 01-2.14-1.62 7.61 7.61 0 01-1.4-2.32 7.623 7.623 0 01-.48-2.66c0-.947.174-1.853.52-2.72a7.662 7.662 0 011.42-2.3 6.864 6.864 0 012.16-1.58c.84-.4 1.754-.6 2.74-.6 1.014 0 1.934.213 2.76.64a6.68 6.68 0 012.14 1.64 7.29 7.29 0 011.38 2.32 7.25 7.25 0 01-.02 5.34 7.142 7.142 0 01-1.42 2.3 7.205 7.205 0 01-2.18 1.58 6.29 6.29 0 01-2.7.58zm-4.52-7.2c0 .667.107 1.313.32 1.94.214.627.514 1.18.9 1.66.4.48.88.867 1.44 1.16.56.28 1.187.42 1.88.42.72 0 1.354-.147 1.9-.44a4.569 4.569 0 001.42-1.2c.387-.493.68-1.047.88-1.66.2-.613.3-1.24.3-1.88 0-.68-.106-1.327-.32-1.94a4.927 4.927 0 00-.92-1.64c-.386-.48-.86-.86-1.42-1.14a3.831 3.831 0 00-1.84-.44c-.72 0-1.36.153-1.92.46a4.46 4.46 0 00-1.42 1.16 5.415 5.415 0 00-.9 1.66c-.2.613-.3 1.24-.3 1.88zm20.23 5.38l8.62-10.5h-8.42V.8h11.04v1.72l-8.42 10.5h8.44V15h-11.26v-1.72zm20.578 0l8.62-10.5h-8.42V.8h11.04v1.72l-8.42 10.5h8.44V15h-11.26v-1.72z" fill="#212121"/></svg>