<svg width="211" height="32" fill="none" xmlns="http://www.w3.org/2000/svg"><path d="M10.165 10.753v1.729h-8.73V.087h8.57v1.728H3.442v3.527h5.683v1.623H3.443v3.788h6.722zM22.006.087l3.836 9.933L29.66.087h2.133l-5.09 12.395h-1.721L19.872.087h2.134zm28.741 10.858c-1.076 1.083-2.313 1.624-3.71 1.624a5.564 5.564 0 01-2.367-.506 6.221 6.221 0 01-1.9-1.397 6.6 6.6 0 01-1.273-2.025 6.589 6.589 0 01-.448-2.409c0-.838.15-1.635.448-2.392a6.436 6.436 0 011.273-1.99A5.832 5.832 0 0144.688.506 5.768 5.768 0 0147.108 0c1.219 0 2.24.25 3.065.75.825.49 1.446 1.141 1.864 1.956l-1.541 1.082c-.347-.675-.825-1.181-1.434-1.519a4.075 4.075 0 00-2.008-.506 3.47 3.47 0 00-1.631.384 3.84 3.84 0 00-1.255.995 4.45 4.45 0 00-.806 1.432 5.457 5.457 0 00-.27 1.71c0 .629.102 1.217.305 1.764a4.82 4.82 0 00.86 1.431c.371.407.808.733 1.31.978a3.834 3.834 0 001.63.349c.646 0 1.261-.146 1.847-.437.597-.29 1.165-.75 1.703-1.379V7.663h-2.671V6.215h4.356v6.267h-1.685v-1.537zm21.667-.192v1.729h-8.73V.087h8.569v1.728h-6.56v3.527h5.681v1.623h-5.682v3.788h6.722zm13.042-7v8.729h-2.008V.087h1.577l7.278 8.938V.105h2.026v12.377h-1.667l-7.206-8.729zm20.696 8.729V.087h2.008v12.395h-2.008zM123.745.087h1.757l5.019 12.395h-2.115l-1.344-3.37h-4.912l-1.326 3.37h-2.134L123.745.087zm2.922 7.576l-2.043-5.324-2.115 5.324h4.158zM8.964 22.399a2.529 2.529 0 00-.52-.402 4.648 4.648 0 00-.806-.419 5.6 5.6 0 00-1.004-.314 4.998 4.998 0 00-1.111-.122c-.849 0-1.476.151-1.882.454-.395.302-.592.721-.592 1.257 0 .302.06.552.18.75.13.186.328.355.59.507.264.14.592.267.987.384.394.104.854.22 1.38.349.645.151 1.225.32 1.739.506.526.186.968.413 1.326.68.359.268.634.6.825.996.203.384.304.855.304 1.414 0 .628-.125 1.17-.376 1.623A3.041 3.041 0 019 31.18a4.64 4.64 0 01-1.47.629A8.137 8.137 0 015.72 32a9.52 9.52 0 01-2.814-.419 8.3 8.3 0 01-2.438-1.257l.914-1.676c.155.152.376.32.663.507.299.186.64.36 1.022.523.394.152.819.285 1.273.402.454.105.926.157 1.416.157.788 0 1.398-.134 1.828-.402.43-.267.645-.663.645-1.187 0-.314-.083-.576-.25-.785-.156-.21-.383-.39-.682-.541a5.682 5.682 0 00-1.093-.437c-.43-.128-.92-.262-1.47-.401a17.9 17.9 0 01-1.667-.507 4.37 4.37 0 01-1.165-.663 2.705 2.705 0 01-.717-.89c-.156-.35-.233-.768-.233-1.257 0-.605.12-1.14.358-1.606.24-.477.562-.873.968-1.187.418-.326.908-.57 1.47-.733a6.54 6.54 0 011.829-.245c.86 0 1.655.134 2.384.402a7.96 7.96 0 011.918.995l-.915 1.606zm21.644-1.187h-4.23v10.666h-2.026V21.212h-4.248v-1.728h10.504v1.728zm10.67 10.666V19.484h5.539c.573 0 1.1.116 1.577.349.49.233.908.54 1.255.925.346.372.615.803.807 1.292.203.477.304.966.304 1.466 0 .419-.06.82-.179 1.205-.12.384-.287.739-.502 1.064a3.618 3.618 0 01-.789.856c-.31.233-.65.407-1.021.524l2.993 4.713h-2.276l-2.76-4.312h-2.94v4.312h-2.008zm2.007-6.04H46.8c.287 0 .544-.058.77-.175.24-.128.443-.297.61-.506a2.731 2.731 0 00.538-1.64c0-.315-.06-.612-.18-.891a2.303 2.303 0 00-.448-.733 1.881 1.881 0 00-.645-.49 1.573 1.573 0 00-.753-.191h-3.406v4.626zm27.536 4.312v1.728h-8.73V19.484h8.569v1.728H64.1v3.526h5.681v1.623H64.1v3.789h6.722zm11.034 1.728V19.484h2.008V30.15h6.83v1.728h-8.838zm21.438-8.728v8.728h-2.007V19.484h1.577l7.278 8.937v-8.92h2.026v12.377h-1.668l-7.206-8.729zm20.697 8.728V19.484h2.008v12.394h-2.008zm13.847 0V19.5h2.008v6.372l5.987-6.39h2.222l-5.019 5.482 5.306 6.913H146.1l-4.302-5.709-1.953 1.973v3.736h-2.008zm25.401.087c-.908 0-1.738-.174-2.491-.524a6.398 6.398 0 01-1.918-1.414 6.6 6.6 0 01-1.255-2.025 6.494 6.494 0 01-.43-2.321c0-.827.155-1.618.466-2.374a6.657 6.657 0 011.273-2.008 6.131 6.131 0 011.935-1.379 5.768 5.768 0 012.456-.524c.908 0 1.733.186 2.474.559.753.36 1.392.838 1.918 1.431a6.34 6.34 0 011.237 2.025 6.184 6.184 0 01-.018 4.661 6.224 6.224 0 01-1.273 2.008 6.46 6.46 0 01-1.954 1.379 5.767 5.767 0 01-2.42.506zm-4.051-6.284a5.1 5.1 0 00.287 1.693c.191.547.46 1.03.807 1.449.358.419.788.756 1.29 1.012a3.8 3.8 0 001.685.367c.646 0 1.213-.128 1.703-.384a4.08 4.08 0 001.273-1.048 4.64 4.64 0 00.789-1.448 5.142 5.142 0 00-.018-3.335 4.266 4.266 0 00-.825-1.431 3.77 3.77 0 00-1.273-.995 3.502 3.502 0 00-1.649-.384c-.645 0-1.219.134-1.72.401a3.967 3.967 0 00-1.273 1.013 4.652 4.652 0 00-.807 1.449 5.142 5.142 0 00-.269 1.64zm21.539-6.197l3.836 9.932 3.818-9.932h2.133l-5.09 12.394h-1.721l-5.109-12.394h2.133zm22.966 0h1.757l5.019 12.394h-2.115l-1.345-3.37h-4.911l-1.327 3.37h-2.133l5.055-12.394zm2.922 7.576l-2.044-5.325-2.115 5.325h4.159z" fill="#212121"/></svg>