<svg width="35" height="40" viewBox="0 0 35 40" fill="none" xmlns="http://www.w3.org/2000/svg">
<path d="M21 26C20.2636 26 19.6667 25.403 19.6667 24.6667C19.6667 23.9303 20.2636 23.3333 21 23.3333C21.7364 23.3333 22.3334 23.9303 22.3334 24.6667C22.3334 25.403 21.7364 26 21 26Z" fill="#E83A30"/>
<path d="M15.6667 26C14.9303 26 14.3334 25.403 14.3334 24.6667C14.3334 23.9303 14.9303 23.3333 15.6667 23.3333C16.4031 23.3333 17 23.9303 17 24.6667C17 25.403 16.4031 26 15.6667 26Z" fill="#E83A30"/>
<path d="M26.3334 26C25.597 26 25 25.403 25 24.6667C25 23.9303 25.597 23.3333 26.3334 23.3333C27.0697 23.3333 27.6667 23.9303 27.6667 24.6667C27.6667 25.403 27.0697 26 26.3334 26Z" fill="#E83A30"/>
<path d="M11.6667 14H30.3334C31.3942 14 32.4116 14.4214 33.1618 15.1716C33.9119 15.9217 34.3334 16.9391 34.3334 18V38C34.333 38.2363 34.2698 38.4682 34.1503 38.672C34.0308 38.8758 33.8593 39.0442 33.6534 39.16C33.4541 39.2729 33.2291 39.3326 33 39.3333C32.7607 39.3333 32.5258 39.2688 32.32 39.1467L26.3334 35.52C26.1121 35.3883 25.8574 35.3234 25.6 35.3333H11.6667C10.6058 35.3333 9.58841 34.9119 8.83827 34.1618C8.08812 33.4116 7.66669 32.3942 7.66669 31.3333V18C7.66669 16.9391 8.08812 15.9217 8.83827 15.1716C9.58841 14.4214 10.6058 14 11.6667 14ZM10.3334 31.3333C10.3334 31.687 10.4738 32.0261 10.7239 32.2761C10.9739 32.5262 11.3131 32.6667 11.6667 32.6667H25.6C26.3283 32.6661 27.0428 32.8643 27.6667 33.24L31.6667 35.64V18C31.6667 17.6464 31.5262 17.3072 31.2762 17.0572C31.0261 16.8071 30.687 16.6667 30.3334 16.6667H11.6667C11.3131 16.6667 10.9739 16.8071 10.7239 17.0572C10.4738 17.3072 10.3334 17.6464 10.3334 18V31.3333Z" fill="#E83A30"/>
<path d="M8 6.99999C8.41421 6.99999 8.75 6.6642 8.75 6.24999C8.75 5.83577 8.41421 5.49999 8 5.49999C7.58579 5.49999 7.25 5.83577 7.25 6.24999C7.25 6.6642 7.58579 6.99999 8 6.99999Z" fill="#E83A30"/>
<path d="M11 6.99999C11.4142 6.99999 11.75 6.6642 11.75 6.24999C11.75 5.83577 11.4142 5.49999 11 5.49999C10.5858 5.49999 10.25 5.83577 10.25 6.24999C10.25 6.6642 10.5858 6.99999 11 6.99999Z" fill="#E83A30"/>
<path d="M4.99997 6.99999C5.41419 6.99999 5.74997 6.6642 5.74997 6.24999C5.74997 5.83577 5.41419 5.49999 4.99997 5.49999C4.58576 5.49999 4.24997 5.83577 4.24997 6.24999C4.24997 6.6642 4.58576 6.99999 4.99997 6.99999Z" fill="#E83A30"/>
<path d="M13.25 0.25H2.75C2.15326 0.25 1.58097 0.487053 1.15901 0.90901C0.737053 1.33097 0.5 1.90326 0.5 2.5V13.75C0.500229 13.8829 0.535767 14.0133 0.602975 14.128C0.670184 14.2426 0.76665 14.3374 0.8825 14.4025C0.994592 14.466 1.12116 14.4996 1.25 14.5C1.38461 14.5 1.51673 14.4637 1.6325 14.395L5 12.355C5.12447 12.2809 5.26775 12.2444 5.4125 12.25H13.25C13.8467 12.25 14.419 12.0129 14.841 11.591C15.2629 11.169 15.5 10.5967 15.5 10V2.5C15.5 1.90326 15.2629 1.33097 14.841 0.90901C14.419 0.487053 13.8467 0.25 13.25 0.25ZM14 10C14 10.1989 13.921 10.3897 13.7803 10.5303C13.6397 10.671 13.4489 10.75 13.25 10.75H5.4125C5.00287 10.7497 4.60092 10.8612 4.25 11.0725L2 12.4225V2.5C2 2.30109 2.07902 2.11032 2.21967 1.96967C2.36032 1.82902 2.55109 1.75 2.75 1.75H13.25C13.4489 1.75 13.6397 1.82902 13.7803 1.96967C13.921 2.11032 14 2.30109 14 2.5V10Z" fill="#E83A30"/>
</svg>