<svg width="32" height="32" viewBox="0 0 32 32" fill="none" xmlns="http://www.w3.org/2000/svg">
<g clip-path="url(#clip0)">
<path d="M20.9232 -1.27107e-05C20.9232 -1.27107e-05 19.9632 0.0492181 18.7312 0.577218C17.498 1.10645 15.8266 2.09599 13.8844 4.03814C9.99888 7.92368 8.6918 11.9224 8.6918 11.9224C8.61066 12.0803 8.56461 12.2538 8.5568 12.431C8.54899 12.6083 8.57961 12.7852 8.64655 12.9495C8.7135 13.1139 8.81519 13.2618 8.94466 13.3831C9.07412 13.5045 9.2283 13.5964 9.39662 13.6526C9.56493 13.7088 9.74341 13.728 9.91982 13.7087C10.0962 13.6895 10.2664 13.6323 10.4186 13.5412C10.5709 13.45 10.7016 13.327 10.8019 13.1806C10.9021 13.0342 10.9695 12.8678 10.9995 12.6929C10.9995 12.6929 12.1552 9.30706 15.6543 5.80799C17.4032 4.05783 18.81 3.20245 19.7306 2.80737C20.3263 2.5526 20.341 2.59814 20.4998 2.57722L21.9238 3.99999C19.4236 5.92613 17.0468 8.00735 14.8075 10.2314C9.58534 15.4523 4.73119 22.0381 4.73119 22.0381L9.96196 27.2689C9.96196 27.2689 16.5478 22.4135 21.77 17.1926C26.9909 11.9717 30.346 6.88491 30.346 6.88491L25.1152 1.65414C25.1152 1.65414 24.6524 2.00737 23.962 2.49968L21.8081 0.345833C21.6909 0.232426 21.5523 0.14345 21.4004 0.0840778C21.2485 0.0247057 21.0862 -0.00387824 20.9232 -1.27107e-05ZM29.1152 -1.27107e-05C28.3312 0.0861411 27.4081 0.475064 26.2315 1.03876L30.9613 5.76983C32.0875 3.41414 32.4936 2.1083 31.1927 0.807372C30.5416 0.157526 29.9004 -0.0861666 29.1152 -1.27107e-05ZM3.88442 22.8849C2.25365 25.6049 1.77365 27.8609 1.65427 29.1532L0.615496 30.1538C0.452286 30.317 0.360596 30.5384 0.360596 30.7692C0.360596 31 0.452286 31.2214 0.615496 31.3846C0.778706 31.5478 1.00007 31.6395 1.23088 31.6395C1.46169 31.6395 1.68306 31.5478 1.84627 31.3846L2.88503 30.3458C4.18227 30.2215 6.41857 29.7329 9.11519 28.1157L3.88442 22.8849Z" fill="#E83A30"/>
</g>
<defs>
<clipPath id="clip0">
<rect width="32" height="32" fill="white"/>
</clipPath>
</defs>
</svg>