<svg width="32" height="32" viewBox="0 0 32 32" fill="none" xmlns="http://www.w3.org/2000/svg">
<g clip-path="url(#clip0)">
<path d="M27.3114 4.68834C21.0602 -1.56293 10.9412 -1.56393 4.68909 4.68834C-1.56224 10.9396 -1.56317 21.0585 4.68909 27.3107C10.9402 33.562 21.0592 33.5629 27.3114 27.3107C33.5627 21.0594 33.5636 10.9405 27.3114 4.68834ZM26.6428 25.0304C25.8954 24.3621 25.0959 23.7706 24.2532 23.2609C24.8102 21.3369 25.1402 19.2197 25.2182 17.0189H29.9212C29.7085 19.9854 28.5687 22.7682 26.6428 25.0304ZM2.07923 17.0189H6.7822C6.8602 19.2197 7.19018 21.3369 7.74716 23.2609C6.90447 23.7706 6.105 24.3621 5.35761 25.0304C3.43168 22.7682 2.29193 19.9854 2.07923 17.0189ZM5.35767 6.9686C6.10506 7.63693 6.90454 8.22839 7.74722 8.7381C7.19024 10.6621 6.86026 12.7793 6.78226 14.9801H2.07923C2.29193 12.0137 3.43168 9.23088 5.35767 6.9686ZM14.9809 8.9488C13.3184 8.8299 11.7154 8.42042 10.2293 7.74491C11.0936 5.51929 12.6869 2.8499 14.9809 2.18838V8.9488ZM14.9809 10.9914V14.9802H8.82185C8.89241 13.1185 9.1562 11.3307 9.5949 9.695C11.2837 10.4333 13.1 10.8742 14.9809 10.9914ZM14.9809 17.0189V21.0077C13.1 21.1249 11.2837 21.5658 9.5949 22.3041C9.1562 20.6684 8.89241 18.8806 8.82185 17.0189H14.9809ZM14.9809 23.0503V29.8106C12.687 29.1491 11.0937 26.4801 10.2293 24.2542C11.7154 23.5787 13.3184 23.1692 14.9809 23.0503ZM17.0196 23.0503C18.6821 23.1692 20.2851 23.5787 21.7712 24.2542C20.9069 26.4799 19.3136 29.1491 17.0196 29.8106V23.0503ZM17.0196 21.0077V17.0189H23.1786C23.1081 18.8806 22.8443 20.6684 22.4056 22.3041C20.7168 21.5658 18.9005 21.1249 17.0196 21.0077ZM17.0196 14.9802V10.9914C18.9005 10.8742 20.7168 10.4333 22.4056 9.695C22.8443 11.3307 23.1081 13.1185 23.1786 14.9802H17.0196ZM17.0196 8.9488V2.18844C19.3136 2.84997 20.9069 5.51935 21.7712 7.74497C20.2851 8.42042 18.6821 8.8299 17.0196 8.9488ZM21.5983 3.20618C22.9032 3.77758 24.1206 4.55239 25.2119 5.51373C24.6924 5.97173 24.1443 6.38702 23.572 6.7584C23.0637 5.49993 22.4144 4.27693 21.5983 3.20618ZM8.42842 6.7584C7.85607 6.38702 7.30802 5.97173 6.7885 5.51373C7.8798 4.55239 9.09718 3.77758 10.4021 3.20618C9.58597 4.27705 8.93669 5.50005 8.42842 6.7584ZM8.42848 25.2407C8.93669 26.4991 9.58609 27.7222 10.4021 28.7929C9.09724 28.2215 7.87986 27.4467 6.78857 26.4854C7.30802 26.0274 7.85613 25.6121 8.42848 25.2407ZM23.572 25.2407C24.1443 25.6121 24.6924 26.0274 25.2119 26.4853C24.1206 27.4466 22.9032 28.2214 21.5983 28.7929C22.4144 27.7222 23.0637 26.4992 23.572 25.2407ZM25.2183 14.9802C25.1403 12.7794 24.8103 10.6621 24.2533 8.73816C25.096 8.22845 25.8954 7.637 26.6429 6.96867C28.5688 9.23088 29.7085 12.0137 29.9212 14.9802H25.2183Z" fill="#E83A30"/>
</g>
<defs>
<clipPath id="clip0">
<rect width="32" height="32" fill="white"/>
</clipPath>
</defs>
</svg>